<?xml version="1.0" standalone="no"?>
<!DOCTYPE svg PUBLIC "-//W3C//DTD SVG 1.1//EN" "http://www.w3.org/Graphics/SVG/1.1/DTD/svg11.dtd" >
<svg xmlns="http://www.w3.org/2000/svg">
<metadata>Generated by IcoMoon</metadata>
<defs>
<font id="icomoon" horiz-adv-x="1024">
<font-face units-per-em="1024" ascent="960" descent="-64" />
<missing-glyph horiz-adv-x="1024" />
<glyph unicode="&#x20;" horiz-adv-x="512" d="" />
<glyph unicode="&#xe900;" glyph-name="area-o" horiz-adv-x="1186" d="M244.251 380.308h-244.251v579.692h619.951v-240.478h-375.7v-339.213zM53.895 434.203h136.461v339.213h375.7v132.689h-512.162v-471.902zM1178.408-73.863h-619.951v240.478h375.7v339.213h244.251v-579.692zM612.352-19.968h512.162v471.902h-136.461v-339.213h-375.7v-132.689z" />
<glyph unicode="&#xe901;" glyph-name="bathroom" horiz-adv-x="910" d="M0 453.651c3.831 13.388 7.509 26.852 11.529 40.201 20.366 67.849 40.543 135.737 61.364 203.359 8.495 27.458 26.662 47.863 51.2 62.464 15.322 9.102 32.047 13.615 49.873 13.691 37.774 0.114 75.548 0.152 113.323-0.038 23.211-0.076 43.729-8.192 61.781-22.528 17.143-13.615 30.417-30.379 38.343-50.783 4.551-11.719 7.585-24.007 11.226-36.105 19.949-66.105 39.86-132.286 59.809-198.428 3.034-10.050 4.058-20.139 0.228-30.189-4.93-12.933-14.45-20.67-28.141-22.3-13.198-1.593-23.438 4.096-31.023 14.867-4.855 6.903-6.751 15.019-9.026 22.907-19.797 67.963-39.595 135.927-59.316 203.928-0.645 2.2-1.555 2.807-3.755 2.769-5.537-0.114-11.074-0.038-17.143-0.038 37.016-126.976 73.918-253.573 110.933-380.435h-103.386v-3.679c0-93.943 0-187.847 0-281.79 0-9.368-2.238-18.091-8.495-25.297-8.913-10.316-20.518-13.995-33.792-12.629-11.605 1.176-21.087 6.447-27.572 16.422-4.172 6.334-5.916 13.426-5.954 20.935-0.076 20.215-0.038 40.391-0.038 60.606v225.166h-22.528v-3.755c0-93.108 0.038-186.216 0-279.324 0-11.795-2.996-22.452-12.136-30.379-12.212-10.619-26.396-12.591-41.377-7.471-13.919 4.779-21.845 15.095-24.311 29.582-0.493 2.882-0.569 5.916-0.569 8.913-0.038 92.843-0.038 185.685-0.038 278.566v3.944h-100.845c36.181 126.976 72.249 253.611 108.468 380.587-5.651 0-10.999 0.076-16.346-0.114-0.645 0-1.555-1.289-1.82-2.162-5.841-19.873-11.643-39.86-17.446-59.771-14.905-51.2-29.734-102.362-44.753-153.562-3.679-12.516-10.923-22.414-23.817-26.776-19.684-6.751-40.505 5.954-43.842 26.472-0.152 0.834-0.417 1.555-0.607 2.389v9.785zM237.037 960c4.096-0.721 8.23-1.327 12.288-2.2 31.934-7.016 57.534-34.399 62.426-66.75 6.106-40.315-16.991-78.052-55.675-90.946-46.497-15.512-97.204 14.488-105.927 62.616-7.813 43.16 18.394 84.271 60.454 94.777 4.399 1.062 8.875 1.669 13.312 2.503h13.122zM744.41 960c4.020-0.721 8.078-1.289 12.023-2.162 32.503-7.282 57.837-34.437 62.692-67.129 5.803-38.95-15.967-75.89-52.945-89.657-46.914-17.56-99.252 12.023-108.658 61.44-8.533 44.98 20.67 87.685 65.764 96.218 2.693 0.531 5.348 0.872 8.040 1.289h13.084zM635.79 644.608h-17.56v-3.603c0-75.852 0.038-151.704 0-227.518 0-11.112-3.034-21.125-11.719-28.558-11.036-9.481-23.855-11.378-37.281-6.372-13.312 4.968-20.025 15.36-21.428 29.279-0.228 2.276-0.303 4.513-0.303 6.827-0.076 82.83-0.152 165.66 0 248.529 0.076 32.54 11.34 60.606 34.968 83.247 16.308 15.588 35.878 24.424 58.406 26.434 3.489 0.341 6.94 0.531 10.354 0.531 56.965 0 113.967 0.341 170.932-0.114 36.864-0.265 65.688-16.725 86.547-46.801 13.274-19.153 19.759-40.619 19.759-64.019-0.076-83.399 0-166.798-0.076-250.159 0-12.478-4.627-23.021-15.132-30.189-11.719-7.927-24.386-8.761-37.016-2.503-11.871 5.879-17.408 16.232-18.204 29.241-0.152 2.313-0.152 4.551-0.152 6.865 0 74.942 0 149.883 0 224.825v3.982h-17.56v-4.286c0-210.982 0-421.926 0-632.908 0-9.368-0.872-18.508-5.196-27.041-7.889-15.55-20.859-23.666-38.040-24.841-18.356-1.214-33.489 5.423-44.297 20.632-5.499 7.737-7.927 16.649-8.382 26.093-0.114 2.238-0.076 4.513-0.076 6.789v368.488h-15.17v-3.717c0-122.387 0-244.774 0.038-367.199 0-9.595-1.327-18.811-5.916-27.383-8.609-15.891-26.852-25.297-44.904-23.969-19.228 1.403-37.888 13.767-41.794 38.381-0.683 3.982-0.796 8.154-0.796 12.174 0 211.703 0 423.291 0 634.918v3.944z" />
<glyph unicode="&#xe902;" glyph-name="beams" horiz-adv-x="2185" d="M1563.307 584.533h559.787v184.32h-778.24l-225.28 191.147-1119.573-894.293 109.227-157.013 1003.52 798.72 948.907-798.72 116.053 157.013z" />
<glyph unicode="&#xe903;" glyph-name="cafe" horiz-adv-x="2284" d="M1923.86 693.839c135.168-20.559 219.766-127.685 181.012-233.078-43.087-117.051-195.663-172.347-351.153-127.055 57.738 122.014 113.822 240.876 170.142 360.133zM268.918-65.89h1703.7c187.865 66.087 271.911 133.356 271.911 133.356h-850.55c65.3 8.743 121.147 29.46 161.477 73.886 60.574 66.954 126.661 73.019 225.28 55.217 211.102-38.046 420.076 63.252 483.643 221.578 60.495 150.607-35.131 321.694-224.807 382.188-69.238 22.055-104.684 43.638-91.215 104.842 8.665 39.542-23.946 55.454-75.697 54.666-84.677-1.26-1365.543-0.315-1494.725-0.551-73.807-0.158-83.495-7.483-87.828-65.221-0.866-12.052-1.418-24.655 1.812-36.313 25.836-93.105 45.214-187.707 80.502-278.528 69.474-179.042 171.008-345.324 358.164-471.985 27.806-18.905 56.556-32.532 89.324-39.7h-819.909c0-0.079 82.55-67.348 268.918-133.435z" />
<glyph unicode="&#xe904;" glyph-name="cafe-o" horiz-adv-x="1707" d="M1462.818-72.875l-1212.416 3.345c-134.622 64.239-195.789 130.389-198.315 133.188l-52.019 57.139h541.355c-105.677 105.199-181.316 245.214-236.817 437.521-18.091 62.805-30.447 127.795-42.394 190.601-4.642 24.781-9.353 49.425-14.404 74.001-3.14 14.882-2.662 29.969-1.911 42.94 4.028 72.431 25.395 93.389 95.3 93.594l631.467-0.137c205.005 0 386.321 0.137 411.853 0.683 0.068 0 0.068 0 0.137 0 41.438 0 61.918-14.677 72.363-26.965 9.762-11.469 20.207-31.881 14.882-64.171-5.598-34.133 0.956-43.349 43.554-61.713 146.978-63.078 224.393-238.933 176.265-400.452-42.189-141.449-168.823-240.299-307.814-240.299-23.757 0-47.582 2.935-70.861 8.533-19.593 4.779-35.499 7.1-48.538 7.1-25.327 0-47.309-7.646-72.431-44.919-3.891-5.734-7.987-11.196-12.288-16.384h543.471l-53.18-57.344c-2.526-2.799-64.649-68.881-200.363-133.052l-6.895-3.209zM272.93-4.608h1174.46c41.028 19.797 74.342 39.663 100.42 57.139h-496.845l-6.144 67.721c42.189 7.646 70.11 24.644 90.59 55.091 34.475 51.2 75.435 75.093 129.092 75.093 18.773 0 39.322-2.867 64.649-9.011 125.201-30.583 257.775 53.18 297.097 184.866 37.82 126.635-24.030 269.38-137.83 318.191-47.991 20.685-98.031 49.903-83.9 135.509 1.024 6.144 0.341 8.806 0.137 9.284v0c-0.41 0-4.779 2.458-16.862 2.458-27.375-0.546-209.374-0.751-415.13-0.751l-631.33 0.137c-18.91 0-24.986-1.229-26.965-1.98 2.935 0.819 0.819-6.417-0.341-27.102-0.478-8.943-0.887-18.227 0.614-25.122 5.188-25.19 9.967-50.176 14.677-75.23 11.605-61.303 23.689-124.655 40.892-184.457 55.774-193.468 132.164-329.455 240.367-428.1 16.998-15.497 32.631-24.917 49.015-29.833l227.123-66.833h-713.182c25.737-17.408 58.709-37.205 99.396-57.071zM1377.758 287.983c-29.286 0-58.846 5.803-87.927 17.135l-30.652 12.015 139.605 397.995 29.218-6.007c53.521-10.991 99.191-43.418 128.751-91.409 30.857-50.381 39.526-112.367 23.757-170.257-26.556-96.87-106.086-159.471-202.752-159.471zM1346.355 359.39c77.551-15.292 146.91 28.058 168.209 106.086 10.854 39.731 4.983 82.125-16.043 116.463-13.995 22.801-33.451 40.346-56.183 50.995l-95.983-273.545z" />
<glyph unicode="&#xe905;" glyph-name="car" horiz-adv-x="1807" d="M444.777 291.448c-96.798 0-175.345-78.547-175.345-175.405 0-96.738 78.547-175.224 175.345-175.224 96.858 0 175.345 78.487 175.345 175.224 0 96.919-78.487 175.405-175.345 175.405zM1422.216 624.369c-82.161 0-161.973 0-241.483 0v-0.241l-530.854 0.241c-79.511 0-159.322 0-241.483 0h-43.008c17.769 26.383 32.166 49.333 47.887 71.138 32.587 45.357 64.753 91.136 99.509 134.445 10.601 13.252 28.792 26.865 44.032 27.648 33.912 1.626 163.72 1.867 280.094 1.265v-0.181c5.722 0.060 11.565 0.060 17.408 0.12 5.843-0.060 133.662-0.060 139.384-0.12v0.181c116.375 0.663 246.242 0.422 280.034-1.265 15.24-0.783 33.491-14.396 44.092-27.648 34.756-43.369 66.861-89.088 99.448-134.445 15.721-21.805 30.178-44.755 47.887-71.198h-42.948zM1727.368 622.2c-28.792-0.12-55.838 1.446-86.679 0.602-34.936-0.964-58.97 12.589-79.33 39.996-64.271 86.377-130.349 171.369-194.921 257.566-17.89 23.913-39.575 37.647-69.692 38.852-7.288 0.301-168.297 0.542-302.923 0.723v0.060c-5.722 0-133.481 0-139.384 0-5.843 0-11.686 0-17.408 0v-0.060c-134.686-0.181-295.635-0.422-302.863-0.723-30.178-1.205-51.863-14.938-69.813-38.852-64.693-86.257-130.711-171.249-195.042-257.626-20.42-27.407-44.333-40.9-79.27-39.996-30.901 0.904-57.946-0.663-86.799-0.542-56.802 0.241-103.243-14.818-103.243-68.247v-369.303c0-38.37 61.56-42.827 108.544-42.827 31.081 0 62.464 0.602 96.075 0.602 3.494 10.24 7.228 20.781 10.722 31.383 34.334 106.496 121.434 172.695 230.159 175.104 101.436 2.349 196.488-65.295 229.557-169.803 10.3-32.467 24.998-38.912 55.597-38.49 41.201 0.602 82.462 0.723 123.663 0.783 41.261-0.060 204.439-0.181 245.7-0.783 30.6-0.482 45.237 6.024 55.537 38.49 33.069 104.508 128.12 172.152 229.677 169.803 108.664-2.409 195.765-68.668 230.159-175.104 3.433-10.662 7.108-21.203 10.722-31.383 33.611 0 64.934-0.602 96.075-0.602 46.923 0 108.484 4.457 108.484 42.827v369.303c-0.060 53.429-46.502 68.488-103.304 68.247zM1385.894 291.448c-96.858 0-175.345-78.547-175.345-175.405 0-96.738 78.487-175.224 175.345-175.224 96.738 0 175.285 78.487 175.285 175.224 0 96.919-78.547 175.405-175.285 175.405z" />
<glyph unicode="&#xe906;" glyph-name="c-arrow" horiz-adv-x="528" d="M505.001 584.329c-2.903-8.023-6.334-15.824-10.303-23.33-6.513-11.517-13.893-22.359-21.937-32.557-1.383-1.647-2.671-3.357-4.117-4.951 0.021-0.021 0.032-0.032 0.053-0.042-38.321-46.038-91.769-77.127-151.995-87.251-66.528-11.18-133.394 4.202-188.342 43.335-54.937 39.134-91.347 97.312-102.516 163.819-11.18 66.518 4.212 133.405 43.346 188.342s97.312 91.347 163.829 102.527c88.212 14.822 178.609-18.696 235.773-87.23 2.048-2.713 7.601-12.636-7.421-26.107-15.107-13.534-27.511-4.582-30.551-1.921-47.547 56.584-122.183 84.084-195.024 71.881-55.127-9.269-103.34-39.44-135.77-84.96s-45.193-100.964-35.935-156.081c9.269-55.117 39.44-103.329 84.971-135.759 45.52-32.441 100.954-45.193 156.081-35.935 36.252 6.091 69.526 21.388 97.206 43.884 0.042-0.063 0.095-0.127 0.137-0.179 21.314 17.186 38.933 38.416 52.023 62.517h-26.371c-9.216-14.463-20.142-27.469-32.589-38.711-1.098-0.982-2.206-1.964-3.315-2.924-25.494-21.926-56.637-36.832-90.788-42.575-49.258-8.276-98.758 3.135-139.443 32.103-40.675 28.968-67.626 72.039-75.892 121.275-8.287 49.247 3.125 98.758 32.092 139.422 28.968 40.686 72.049 67.637 121.275 75.903 65.367 10.979 132.244-13.829 174.692-64.744l0.823-0.887c3.79-3.653 9.849-7.654 17.281-9.997 0 0 24.734-7.759 44 11.085 25.737 23.077 17.735 47.21 9.839 56.806-62.422 74.815-160.81 111.278-256.802 95.158-149.451-25.114-250.606-167.123-225.491-316.574 12.172-72.387 51.791-135.706 111.584-178.303 47.083-33.528 102.199-51.052 158.857-51.052 15.297 0 30.72 1.298 46.112 3.874 65.019 10.926 122.764 44.317 164.389 93.722 0.021-0.032 0.042-0.053 0.074-0.084 19.899 22.053 34.732 48.096 43.758 76.504h-23.594zM254.512 409.7h19.583v-457.844h-19.583v457.844zM264.308-62.522l-55.497 59.688 14.347 13.344 41.15-44.264 41.15 44.264 14.347-13.344z" />
<glyph unicode="&#xe907;" glyph-name="cbre" horiz-adv-x="4242" d="M1756.087 153.893h-349.696v175.909l359.131-0.073c44.544-5.047 78.263-42.203 78.263-86.162 0-47.982-39.936-89.015-87.698-89.673zM1406.391 731.282l368.713-0.219c41.472-7.387 71.607-42.642 71.607-83.968 0-42.277-32.329-82.213-75.045-87.918l-364.837-0.658-0.439 172.763zM1926.437 450.487c133.925 44.544 158.208 156.891 157.842 248.466-0.219 139.849-99.035 260.827-391.241 260.827l-545.499 0.073v-1051.063h544.11c294.034 0 402.139 150.967 402.139 302.153 0 183.15-167.351 239.543-167.351 239.543zM3315.419 959.854v-1053.111h921.819l0.073 240.347h-665.161v183.369h599.698v230.619h-599.698l-0.585 169.326h665.015l0.585 229.449zM2918.839 632.247c-4.535-34.523-39.131-71.973-82.286-71.973l-359.79-0.146v168.302h359.936c43.008 0 76.654-31.744 82.139-73.216v-22.967zM2779.136 958.464h-557.422v-1051.429h255.927v425.472l281.893 0.219c80.75-1.17 143.579-67.291 143.579-148.846v-275.822l250.514 0.073-0.439 339.237c0 157.257-151.845 203.703-151.845 203.703s155.209 46.373 155.209 232.229c0 227.474-195.365 275.163-377.417 275.163zM981.577 161.061c-3.657-0.073-349.915-6.729-469.431 4.901-192.512 18.871-260.754 161.499-260.754 277.87 0 145.115 98.962 251.904 252.197 271.945 72.997 9.582 471.625 5.047 475.867 4.974l8.338-0.073 0.878 239.104h-8.411l-451.291-0.878c-50.249-3.072-133.559-8.046-218.843-42.935-81.92-37.522-153.161-95.159-206.482-166.985-67.73-91.282-103.643-199.607-103.643-313.344 0-35.767 2.853-71.314 8.631-105.253 32.475-159.525 136.997-291.328 286.793-362.277 50.615-22.309 128.658-49.006 285.989-57.783 0.366 0 84.773-1.829 84.773-1.829 0-0.073 314.587-0.293 314.587-0.293h8.338l0.878 253.074-8.411-0.219z" />
<glyph unicode="&#xe908;" glyph-name="c-dot" horiz-adv-x="986" d="M507.676 230.533c118.784 0 215.078 96.256 215.078 215.078s-96.294 215.078-215.078 215.078c-118.784 0-215.078-96.294-215.078-215.078s96.256-215.078 215.078-215.078zM945.19 256.891c-5.461-15.019-11.871-29.62-19.266-43.691-12.212-21.542-26.055-41.832-41.074-60.871-2.579-3.072-5.044-6.258-7.699-9.292 0.038 0 0.076-0.038 0.114-0.076-71.756-86.13-171.767-144.346-284.52-163.309-124.473-20.897-249.666 7.889-352.484 81.161-102.817 73.235-170.97 182.12-191.867 306.593-20.935 124.473 7.889 249.666 81.124 352.484s182.12 170.97 306.593 191.867c165.129 27.762 334.317-34.968 441.268-163.233 3.831-5.082 14.26-23.666-13.881-48.887-28.255-25.297-51.465-8.571-57.154-3.565-88.974 105.889-228.693 157.355-364.999 134.485-103.196-17.332-193.422-73.804-254.104-159.023-60.719-85.182-84.613-188.909-67.281-292.105 17.37-103.159 73.804-193.384 159.061-254.104 85.182-60.719 188.947-84.537 292.105-67.205 67.849 11.416 130.124 40.012 181.931 82.148 0.076-0.114 0.19-0.228 0.265-0.341 39.936 32.161 72.856 71.908 97.356 117.001h-49.342c-17.256-27.079-37.698-51.428-60.985-72.439-2.086-1.858-4.134-3.679-6.258-5.537-47.673-41.036-106.003-68.873-169.87-79.682-92.198-15.474-184.889 5.879-261.006 60.075-76.117 54.234-126.559 134.865-142.033 226.987-15.512 92.198 5.841 184.851 60.075 260.968 54.196 76.117 134.827 126.597 226.949 142.033 122.311 20.518 247.505-25.903 326.959-121.211l1.555-1.631c7.13-6.827 18.394-14.336 32.351-18.735 0 0 46.27-14.526 82.337 20.745 48.204 43.198 33.185 88.367 18.394 106.306-116.812 140.060-300.98 208.289-480.635 178.138-279.704-46.952-468.992-312.813-422.040-592.517 22.793-135.509 96.939-253.952 208.858-333.71 88.102-62.767 191.26-95.573 297.301-95.573 28.672 0 57.534 2.389 86.281 7.206 121.704 20.442 229.793 82.982 307.693 175.445 0.038-0.076 0.076-0.114 0.114-0.152 37.205 41.263 65.043 89.998 81.92 143.17h-44.108z" />
<glyph unicode="&#xe909;" glyph-name="check-o" horiz-adv-x="1071" d="M437.062-76.8c-13.219 0-26.671 2.886-40.029 8.471-20.387 8.425-40.355 21.457-56.087 36.724-66.746 64.931-133.073 130.281-199.401 195.631l-103.936 102.307c-14.848 14.569-29.975 30.767-36.724 54.598l-0.884 6.377 1.164 25.553c7.773 23.692 23.831 40.262 39.564 55.203 10.845 10.426 21.644 21.132 32.442 31.884 9.030 8.983 18.060 17.967 27.229 26.857 35.887 34.769 84.061 34.63 119.808-0.465 62.324-61.161 124.509-122.508 186.601-183.855l103.098 149.69c108.684 157.789 217.367 315.578 325.772 473.6 16.337 23.785 37.004 49.571 76.195 54.086l10.799 0.14 20.806-10.287c12.614-6.097 25.321-12.241 37.423-19.409 10.38-6.144 20.34-12.94 30.208-19.782 8.192-5.632 16.384-11.264 24.809-16.431 18.153-11.078 43.194-29.743 51.805-63.628l0.745-5.772v-21.551l-8.564-16.291c-4.748-9.309-9.542-18.572-15.407-27.136-171.52-249.577-343.226-499.014-515.025-748.451l-3.91-5.679c-10.473-15.22-21.039-30.487-32.954-44.637-20.945-24.716-47.057-37.748-75.543-37.748zM46.545 330.892c4.189-11.636 13.591-21.457 23.645-31.325l104.029-102.4c66.234-65.257 132.468-130.56 199.121-195.398 11.59-11.217 26.298-20.852 41.472-27.136 23.971-9.914 44.544-4.468 62.231 16.384 10.892 12.893 20.527 26.996 30.115 40.96l3.91 5.725c171.753 249.391 343.505 498.828 514.979 748.404 4.748 6.842 8.471 14.383 12.288 21.876l3.537 6.842v6.703c-3.956 12.567-12.94 22.249-30.255 32.908-9.169 5.585-18.060 11.636-26.857 17.734-9.076 6.237-18.199 12.474-27.648 18.106-10.938 6.47-22.435 12.009-33.932 17.548l-10.24 5.027c-15.639-3.119-25.693-14.010-39.005-33.373-108.358-158.068-217.088-315.904-325.818-473.693l-140.195-202.193-22.854 33.559c-67.305 67.77-132.329 132.003-197.539 195.956-18.339 18.013-36.492 18.106-54.831 0.279l-26.81-26.438c-10.985-10.892-21.969-21.83-33.094-32.535-11.404-10.938-21.318-20.992-26.252-33.001v-10.519z" />
<glyph unicode="&#xe90a;" glyph-name="c-logo" horiz-adv-x="985" d="M941.392 259.55c-5.593-15.059-11.617-29.687-19.361-43.455-12.047-21.513-25.815-41.734-40.874-60.666-2.582-3.012-5.163-6.454-7.745-9.035 0 0 0 0 0 0-71.422-85.62-171.24-143.704-283.536-162.635-123.913-20.652-248.686 7.745-351.086 80.887s-170.38 181.566-191.032 305.479c-20.222 123.482 8.175 248.255 81.318 350.655s181.566 170.38 305.479 191.032c164.356 27.536 333.015-34.85 439.718-162.635 3.872-5.163 14.198-23.664-13.768-48.618-27.966-25.385-51.2-8.605-56.793-3.442-88.632 105.412-228.034 156.612-363.563 133.808-102.83-17.21-192.753-73.573-252.988-158.333-60.666-84.76-84.329-188.020-67.119-290.85s73.573-192.753 158.333-252.988c84.76-60.666 188.020-84.329 290.85-67.119 67.55 11.187 129.506 40.013 181.136 81.748 0 0 0-0.43 0.43-0.43 39.583 31.839 72.713 71.422 96.807 116.598h-49.049c-17.21-27.106-37.432-51.2-60.666-72.282-2.151-1.721-4.303-3.872-6.024-5.593-47.328-40.874-105.412-68.84-169.089-79.166-91.644-15.489-184.148 6.024-259.872 59.805-75.724 54.212-126.064 134.239-141.553 226.313-15.489 91.644 6.024 184.148 59.805 259.872 54.212 75.724 134.239 126.064 226.313 141.553 121.761 20.652 246.534-25.815 325.701-120.901l1.721-1.721c6.884-6.884 18.501-14.198 32.269-18.501 0 0 46.037-14.629 82.178 20.652 48.188 43.025 33.129 88.202 18.501 105.842-117.889 139.832-301.176 207.812-480.161 177.694-278.803-46.897-467.254-311.503-420.356-590.306 22.803-135.099 96.376-252.988 208.242-332.585 87.771-62.387 190.602-95.086 296.013-95.086 28.397 0 57.224 2.582 86.050 7.314 121.331 20.222 228.894 82.608 306.339 174.682 0 0 0 0 0 0 37.002 41.304 64.968 89.492 81.748 142.413h-44.316z" />
<glyph unicode="&#xe90b;" glyph-name="dollar-house" horiz-adv-x="1384" d="M692.003 134.102l-6.864-62.879h-59.392l7.611 69.853c-53.276 13.284-92.077 46.108-111.865 89.42l84.466 52.39c12.952-37.030 46.44-61.468 84.494-61.468 39.604 0 70.019 16.744 70.019 54.493 0 79.623-219.966 78.931-219.966 227.743 0 75.444 60.139 134.808 151.497 133.424l9.133 71.957h59.364l-9.88-81.754c48.737-16.052 79.927-50.979 98.941-95.702l-85.988-48.903c-12.952 40.517-35.785 67.086-76.108 67.086-28.202 0-47.962-16.080-47.962-43.312 0-86.625 219.966-69.162 219.966-230.538-0.028-85.933-69.3-141.091-167.466-141.81zM1366.099 474.735c-56.431 43.368-113.138 86.376-169.956 129.328-6.753 5.12-9.714 10.6-9.686 18.958 0.36 100.795 0.249 201.617 0.249 302.44-0.028 24.742-8.856 32.823-35.785 32.823-49.014 0.028-98.027 0.028-147.041 0-27.897 0-36.477-7.722-36.532-33.045-0.083-44.336-0.028-88.645-0.083-132.954 0-3.432-0.526-6.836-0.913-11.485-3.017 1.716-4.317 2.269-5.369 3.072-67.224 51.56-134.67 102.843-201.562 154.79-36.643 28.451-97.474 28.312-133.701 0.387-61.689-47.602-124.015-94.485-185.925-141.866-79.429-60.748-158.609-121.801-238.038-182.549-61.329-46.91-122.991-93.488-184.182-140.537-6.864-5.258-11.762-12.648-17.574-19.041v-14.225c18.045-20.342 35.923-40.794 54.161-60.997 15.914-17.602 29.502-18.958 49.18-4.373 26.873 19.954 53.331 40.351 79.844 60.693 4.871 3.709 9.686 7.472 14.557 11.126 0.111-132.207 0.028-336.37 0.111-440.403 0.028-37.445 21.587-57.178 61.938-57.178 103.203-0.028 206.405-0.028 309.58-0.028h246.812c102.428 0 204.883 0 307.338 0.028 41.984 0 63.128 19.456 63.156 58.091 0.055 55.85 0.028 111.644 0.028 167.466 0 46.634 0.083 177.373-0.055 272.163 31.163-23.856 62.353-47.768 93.71-71.403 20.84-15.72 34.096-13.921 51.338 5.424 17.629 19.816 35.203 39.632 52.805 59.392v14.225c-6.061 6.614-11.264 14.198-18.404 19.677z" />
<glyph unicode="&#xe90c;" glyph-name="fan-o" d="M502.93-69.022l-58.904 0.585-1.999 25.502-3.901-24.040c-39.205 4.584-75.288 17.554-107.13 38.619-38.376 25.307-57.978 62.171-58.319 109.714-0.244 39.351 16.189 73.777 48.859 102.351 24.869 21.748 46.373 42.325 65.682 63 16.384 17.457 26.039 36.766 28.77 57.393-11.752 8.29-22.235 17.701-31.5 28.087-26.429-19.895-54.174-35.109-84.504-46.47-56.076-21.163-104.35-26.136-150.040-16.091-71.241 15.75-118.735 62.757-141.019 139.557-2.974 10.045-4.73 20.48-6.437 30.915l-2.048 12.288-0.439 61.44 0.829 3.121c6.534 46.47 19.358 81.481 40.472 110.885 11.849 16.433 24.43 29.16 37.498 37.742 19.992 13.312 45.056 20.626 70.51 20.626 39.253 0 74.801-16.53 100.157-46.568 19.505-23.259 41.399-46.324 65-68.559 18.042-16.969 36.766-26.429 57.1-28.77 8.046 11.557 17.31 22.040 27.794 31.354-18.578 24.478-34.523 53.638-46.616 86.016-18.627 49.932-24.478 94.744-17.896 136.923 12.288 78.165 61.879 131.657 143.311 154.722 9.411 2.682 19.163 4.389 28.916 6.095l11.995 2.146 61.684 0.439 3.56-1.122c37.937-5.071 71.924-16.628 102.595-35.255 42.228-25.502 64.61-64.951 64.805-114.005 0.146-39.448-15.994-73.63-48.079-101.62-25.698-22.528-47.445-43.398-66.316-63.634-16.872-18.091-26.283-36.913-28.77-57.442 11.459-7.997 21.894-17.31 31.354-28.087 27.697 20.968 57.442 36.815 90.307 48.567 54.711 19.602 101.522 23.796 145.457 13.8 70.607-16.238 117.711-63.147 139.898-139.459 2.877-9.947 4.632-20.285 6.339-30.622l2.194-12.483 0.439-58.904-2.146-9.606c-5.461-43.398-20.285-81.92-43.983-114.444-23.113-31.646-56.027-48.664-97.963-50.566l-6.485-0.195c-39.010 0-72.85 16.286-100.596 48.421-21.016 24.235-42.764 47.104-64.805 67.925-16.579 15.604-35.45 25.015-56.125 27.892-7.753-10.142-16.433-19.358-25.161-28.526-0.926-1.024-1.804-1.902-2.682-2.779 22.089-28.916 39.351-61.879 51.346-98.255 17.554-52.955 21.163-97.231 11.215-139.264-17.31-74.313-67.145-122.392-147.944-142.726-8.143-2.048-16.433-3.365-24.771-4.73l-11.508-1.902zM465.286 312.198c0.098-1.999 0.049-3.755 0-5.12-2.292-34.621-16.579-66.024-42.423-93.672-20.431-21.845-43.106-43.593-69.193-66.365-22.138-19.31-32.329-40.082-32.183-65.243 0.195-31.159 11.8-53.199 36.425-69.437 25.795-17.018 53.931-27.112 86.114-30.866 3.023-0.39 5.9-1.024 8.777-1.804l53.979 1.365c6.924 1.122 13.848 2.194 20.578 3.901 62.513 15.701 99.279 50.566 112.347 106.545 7.753 32.914 4.584 68.754-10.045 112.786-11.947 36.133-29.794 68.218-53.053 95.378-1.658 1.95-3.17 3.998-5.071 6.485l-6.242 8.485c-16.433-6.729-34.328-10.435-53.102-10.435v0c-16.286 0-32.037 2.731-46.909 7.997zM647.851 398.409l5.12-0.244c33.353-3.267 63.293-17.262 88.99-41.496 23.259-21.943 46.129-45.982 68.169-71.485 18.627-21.504 38.912-31.549 63.781-31.549 31.403 1.365 50.664 11.118 65.048 30.72 19.066 26.136 30.476 56.174 35.011 91.819 0.39 2.974 1.024 5.9 1.755 8.923l-1.95 58.075c-1.365 8.387-2.731 16.823-5.071 24.917-17.115 58.904-51.102 93.428-104.009 105.57-34.67 8.046-72.314 4.194-118.15-12.19-35.157-12.532-64.658-29.647-90.307-52.322l-13.556-10.386c6.827-16.872 10.386-35.157 10.338-53.979-0.049-16.238-2.877-31.89-7.997-46.47 0.926 0.049 1.902 0.098 2.828 0.098zM48.762 506.953l1.902-58.953c1.365-8.436 2.731-16.92 5.071-25.112 17.262-59.294 51.493-93.818 104.741-105.667 36.376-7.948 75.337-3.511 122.344 14.092 32.232 12.142 60.952 29.16 85.431 50.566l13.556 10.24c-6.875 16.969-10.386 35.255-10.338 54.174 0.049 16.335 2.877 32.085 8.094 46.714-0.39 0-0.78 0-1.122 0v0c-36.571 1.317-68.803 15.604-97.475 42.618-24.966 23.503-48.128 47.933-68.803 72.606-21.455 25.405-48.616 29.208-62.903 29.208-15.945 0-31.403-4.437-43.593-12.532-8.094-5.364-16.433-13.946-24.771-25.551-16.189-22.528-26.136-50.225-30.427-84.602-0.293-2.584-0.926-5.218-1.707-7.802zM512.488 562.395l-0.098-24.381c-50.664 0-91.965-41.204-92.111-91.819-0.049-25.161 9.557-48.713 27.112-66.316 17.262-17.359 40.229-26.917 64.61-26.917 50.81 0 92.111 41.253 92.258 91.916 0.049 25.064-9.46 48.518-26.819 66.024-17.262 17.457-40.326 27.063-65 27.112l0.049 24.381zM523.703 911.238l-8.436-1.902c-7.997-1.365-16.043-2.731-23.796-4.925-63.634-17.993-99.084-55.735-108.446-115.371-5.266-33.646-0.195-70.412 15.409-112.347 12.824-34.328 29.745-63.049 51.834-87.966l7.314-13.117c16.872 7.168 35.401 11.118 54.808 11.118v0c16.238 0 32.085-2.731 46.909-7.997-0.146 2.487-0.049 4.535 0.098 5.851 1.902 33.451 16.14 64.951 42.228 92.989 20.041 21.455 42.91 43.398 69.876 67.048 21.602 18.822 31.549 39.4 31.5 64.756-0.098 32.524-13.214 55.54-41.301 72.46-24.722 14.97-52.029 24.283-81.286 27.648l-7.217 1.755h-49.493zM512.488 354.67h-0.926c-23.893 0.244-47.348 10.484-64.366 27.989-16.969 17.506-26.039 40.131-25.551 63.732 1.024 49.64 41.594 90.014 90.405 90.014 51.395-1.122 91.234-42.179 90.746-91.526-0.488-49.786-41.009-90.21-90.307-90.21zM513.024 487.595c-23.454 0-42.13-18.92-42.618-42.179-0.195-10.533 3.998-20.724 11.8-28.818 7.997-8.29 18.871-13.117 29.842-13.214l0.39-24.381v24.381c22.284 0 41.301 19.212 41.545 41.935 0.244 22.43-18.53 41.789-40.96 42.277 0 0 0 0 0 0z" />
<glyph unicode="&#xe90d;" glyph-name="hammer" horiz-adv-x="1071" d="M0 62.976c0.884 3.165 1.722 6.284 2.653 9.402 3.258 10.938 9.356 20.108 17.501 28.067 65.35 63.907 130.607 127.86 195.91 191.814 117.015 114.641 234.031 229.283 351.046 343.878 1.536 1.489 3.072 2.932 4.887 4.701 38.865-39.983 77.498-79.686 116.271-119.529-16.291-18.060-32.349-35.84-48.407-53.527-71.68-79.267-143.407-158.534-215.087-237.801-58.415-64.559-116.829-129.117-175.197-193.676-26.252-28.998-52.596-57.949-78.708-87.087-9.961-11.031-21.876-18.153-36.724-20.108-0.791-0.093-1.536-0.605-2.281-0.931h-12.986c-0.605 0.279-1.164 0.745-1.815 0.791-15.5 2.001-28.113 9.216-38.865 20.387-20.294 21.132-41.1 41.751-61.161 63.069-5.306 5.679-9.169 12.94-12.893 19.921-2.188 4.003-2.793 9.030-4.143 13.591v17.036zM1085.347 559.383c-3.025-15.5-12.893-26.391-23.692-37.19-25.088-24.995-49.711-50.455-74.612-75.729-20.992-21.364-49.338-21.039-69.818 0.791-6.423 6.796-12.893 13.452-19.13 20.387-9.123 10.147-14.708 21.923-13.405 35.793 0.419 4.143 2.653 8.611 5.353 11.776 5.679 6.656 6.47 14.103 4.98 22.016-2.374 12.986-9.216 23.738-17.873 33.42-16.431 18.479-35.421 33.14-59.951 39.238-10.24 2.607-20.62 3.491-31.139 1.489-8.937-1.722-17.129-5.213-23.738-11.823-10.1-10.1-20.34-20.154-30.394-30.301-1.257-1.21-2.188-2.886-3.444-4.608-40.448 39.936-80.105 79.081-120.273 118.691 3.817 3.677 7.447 7.028 10.845 10.612 8.844 9.263 17.873 18.432 26.205 28.067 14.801 16.756 16.617 35.561 7.959 55.715-4.049 9.402-9.775 17.687-17.361 24.716-44.637 41.658-97.373 68.236-156.067 83.689-28.579 7.494-57.716 12.241-87.412 13.033-0.977 0.047-1.955 0.186-3.351 0.326-0.559 11.776-1.257 23.366-1.583 35.002 0 1.024 2.141 2.746 3.537 3.072 17.315 3.91 34.63 7.866 52.038 11.311 27.741 5.492 55.761 8.844 84.015 10.287 1.303 0.093 2.607 0.559 3.863 0.838h50.967c1.908-0.326 3.863-0.745 5.818-0.977 20.387-2.746 41.007-4.329 61.114-8.378 59.718-12.055 113.059-38.028 157.37-80.105 38.865-36.817 76.195-75.311 113.897-113.292 3.398-3.351 6.144-8.239 7.168-12.847 2.095-9.681 3.025-19.642 4.143-29.51 1.489-13.172 1.908-26.577 4.143-39.61 6.423-36.492 35.281-50.967 60.044-53.155 1.815-0.14 4.143 0.233 5.539 1.257 13.684 10.659 35.793 9.681 48.454-2.56 14.569-13.964 30.999-27.089 35.793-48.5v-12.94z" />
<glyph unicode="&#xe90e;" glyph-name="handbag-o" horiz-adv-x="1073" d="M354.060 495.055c-28.526 0-53.199 16.969-62.903 43.252-2.633 7.314-3.998 15.409-3.998 23.503l-0.195 40.57c-0.195 42.618-0.439 85.187 0.39 127.756 2.146 112.055 90.161 209.676 204.605 227.035l10.825 2.828 61.684-0.731 10.923-2.682c7.119-1.707 14.19-3.413 21.211-5.364 103.326-28.184 176.226-120.881 177.298-225.426 0.488-48.274 0.341-96.597 0.195-144.969l-0.049-18.042c-0.146-38.522-28.818-67.486-66.706-67.486-38.034 0-66.804 29.013-66.901 67.438l-0.049 154.965c-0.098 59.977-39.887 103.375-101.474 110.543-52.858 5.803-107.422-35.45-115.468-85.138-2.243-13.848-2.341-28.574-2.438-44.178-0.244-28.428-0.195-52.078-0.195-75.776l-0.049-61.879c-0.195-32.524-23.454-59.977-55.247-65.292-3.852-0.634-7.704-0.926-11.459-0.926zM507.611 911.238c-2.536-0.975-5.364-1.902-8.728-2.341-90.892-13.8-161.061-91.087-162.767-179.736-0.829-42.179-0.585-84.358-0.39-126.537l0.146-40.716c0-2.536 0.39-5.071 1.024-6.924 2.828-7.704 11.508-12.288 20.626-10.874 8.338 1.365 14.385 8.728 14.482 17.506l0.049 61.489c0 23.796-0.049 47.64 0.098 71.485 0.146 21.455 0.244 38.766 3.072 56.369 12.19 74.85 91.038 134.778 169.253 125.757 86.357-10.045 144.53-73.923 144.628-158.915l0.049-154.868c0-11.605 6.973-18.773 18.139-18.773s17.896 7.070 17.944 18.92l0.049 18.042c0.146 48.128 0.293 96.305-0.195 144.335-0.878 82.846-58.953 156.379-141.361 178.81-6.632 1.804-13.214 3.413-19.846 5.022l-8.29 1.95h-47.982zM801.304-80.823h-544.134c-52.712 0.049-96.597 33.743-109.275 83.919l-145.408 576.561c-2.828 11.362-5.413 28.038 5.315 41.789 10.825 13.897 28.233 15.506 40.326 15.506l245.37 0.049-0.049-41.301c-0.049-11.995-0.098-23.747 0.098-35.547 0.341-26.331 20.285-50.225 46.324-55.589 38.717-7.802 73.045 18.773 74.459 57.734 0.341 10.776 0.244 21.602 0.146 32.866l-0.098 41.204h232.302l-0.049-38.619c0-11.654-0.049-23.357 0.146-35.060 0.39-29.452 20.041-52.858 48.908-58.368 37.986-7.461 71.387 20.187 72.070 56.174 0.244 11.41 0.146 22.821 0.098 34.621l-0.049 41.886 244.297-0.049c6.632 0 26.673 0 38.766-15.506 11.995-15.409 7.168-34.523 5.559-40.814l-6.095-24.235c-46.568-184.905-93.184-369.859-139.995-554.764-12.434-49.25-56.222-82.408-109.032-82.456zM50.664 588.19l144.53-573.196c7.314-29.013 31.061-47.006 61.976-47.055h543.988c30.622 0.049 54.857 17.944 61.879 45.641 46.811 184.905 93.379 369.859 139.947 554.715l5.022 19.895-191.39 0.049c0.049-9.704 0.049-19.212-0.146-28.721-1.268-64.805-62.318-115.956-129.95-103.131-51.395 9.85-87.82 53.199-88.503 105.521-0.146 8.533-0.195 17.115-0.146 25.698h-134.583c0.049-9.167 0-18.139-0.293-27.063-2.097-60.514-49.006-106.203-109.080-106.203 0 0 0 0 0 0-7.899 0-15.945 0.829-23.845 2.438-48.762 10.045-84.602 53.199-85.285 102.595-0.146 9.606-0.146 19.163-0.098 28.867l-194.024-0.049z" />
<glyph unicode="&#xe90f;" glyph-name="key" horiz-adv-x="2127" d="M152.734 445.637c-1.418-73.413 60.731-138.082 131.86-137.137 70.341 0.866 130.521 62.779 130.442 134.38 0 73.807-57.029 132.096-129.654 132.569-72.862 0.473-131.23-56.556-132.647-129.812zM319.173-27.451c-192.118 83.653-329.098 285.854-318.622 500.5 10.161 208.108 161.634 395.106 353.122 462.69 212.362 75.067 429.686-33.398 563.673-202.122 17.093-21.504 32.689-33.713 58.762-28.987 121.541 21.819 216.615-20.007 287.271-122.014 9.61-13.863 20.874-26.624 34.186-43.481 45.529 44.032 85.386 82.629 131.702 127.37 35.131-43.559 68.608-84.913 107.441-132.962 47.577 55.532 83.889 97.989 124.692 145.723 46.080-51.751 83.417-93.578 126.425-142.1 42.535 50.018 79.557 93.42 121.226 142.257 86.489-93.342 163.682-176.443 240.876-259.623v-17.093c-60.81-66.009-120.911-132.805-183.611-197.081-10.555-10.791-32.295-14.415-48.916-14.494-311.611-0.788-623.222-1.024-934.833 0.079-29.775 0.079-47.734-8.428-64.748-33.95-109.804-165.179-307.988-249.62-496.089-215.828-34.737 6.302-69.159 16.542-102.558 31.114z" />
<glyph unicode="&#xe910;" glyph-name="logo" horiz-adv-x="1521" d="M476.21 583.208c18.889 0 38.773-10.936 43.744-32.808h-15.907c-4.971 11.93-15.907 17.895-28.831 17.895-19.883 0-32.808-14.913-32.808-34.796 0-18.889 12.924-34.796 32.808-34.796 12.924 0 24.854 6.959 28.831 19.883h15.907c-4.971-23.86-24.854-33.802-44.738-33.802-26.843 0-49.709 17.895-49.709 49.709 0.994 29.825 23.86 48.715 50.703 48.715zM625.336 567.301h-42.75v-24.854h40.761v-14.913h-40.761v-27.837h43.744v-14.913h-60.645v97.429h59.65zM708.847 499.697c19.883 0 31.814 15.907 31.814 33.802s-11.93 33.802-31.814 33.802h-18.889v-67.604h18.889zM709.841 582.214c29.825 0 47.72-22.866 47.72-48.715s-16.901-48.715-47.72-48.715h-34.796v97.429h34.796zM843.060 531.511c10.936 0 17.895 7.953 17.895 17.895s-7.953 17.895-17.895 17.895h-23.86v-35.79h23.86zM881.833 486.773v-1.988h-16.901l-23.86 33.802h-21.872v-33.802h-15.907v97.429h39.767c20.878 0 33.802-13.918 33.802-31.814 0-13.918-7.953-24.854-20.878-28.831l25.849-34.796zM970.315 498.703c17.895 0 33.802 11.93 33.802 34.796 0 21.872-14.913 34.796-32.808 34.796s-33.802-12.924-33.802-34.796c-0.994-22.866 13.918-34.796 32.808-34.796zM969.32 482.796c-26.843 0-49.709 18.889-49.709 50.703s22.866 50.703 49.709 50.703c26.843 0 49.709-18.889 49.709-50.703 0-29.825-19.883-50.703-49.709-50.703zM1075.697 512.621c0.994-10.936 12.924-14.913 22.866-14.913s22.866 2.983 22.866 14.913c0 12.924-12.924 13.918-24.854 14.913-17.895 1.988-35.79 6.959-35.79 26.843s17.895 29.825 36.784 29.825c18.889 0 35.79-7.953 36.784-27.837h-14.913c-0.994 10.936-11.93 13.918-20.878 13.918s-20.878-3.977-20.878-14.913c0-10.936 10.936-11.93 21.872-13.918 19.883-1.988 37.779-5.965 37.779-28.831 0-21.872-19.883-29.825-38.773-29.825s-38.773 8.948-39.767 29.825h16.901zM476.21 444.023c18.889 0 38.773-10.936 43.744-32.808h-15.907c-4.971 11.93-15.907 17.895-28.831 17.895-19.883 0-32.808-14.913-32.808-34.796 0-18.889 12.924-34.796 32.808-34.796 12.924 0 24.854 6.959 28.831 19.883h15.907c-4.971-23.86-24.854-33.802-44.738-33.802-26.843 0-49.709 17.895-49.709 49.709 0.994 29.825 23.86 48.715 50.703 48.715zM609.429 359.518c17.895 0 33.802 11.93 33.802 34.796 0 21.872-14.913 34.796-32.808 34.796s-33.802-12.924-33.802-34.796c0-22.866 14.913-34.796 32.808-34.796zM609.429 343.612c-26.843 0-49.709 18.889-49.709 50.703s22.866 50.703 49.709 50.703c26.843 0 49.709-18.889 49.709-50.703 0-29.825-19.883-50.703-49.709-50.703zM721.771 360.513h41.755v-14.913h-57.662v97.429h15.907zM822.183 360.513h41.755v-14.913h-57.662v97.429h15.907zM965.344 429.111h-42.75v-25.849h40.761v-14.913h-40.761v-27.837h43.744v-14.913h-59.65v97.429h58.656zM1056.808 444.023c18.889 0 38.773-10.936 43.744-32.808h-15.907c-4.971 11.93-15.907 17.895-28.831 17.895-19.883 0-32.808-14.913-32.808-34.796 0-18.889 12.924-34.796 32.808-34.796 12.924 0 24.854 6.959 28.831 19.883h15.907c-4.971-23.86-24.854-33.802-44.738-33.802-26.843 0-49.709 17.895-49.709 49.709 0.994 29.825 23.86 48.715 50.703 48.715zM1136.342 428.117v14.913h72.575v-14.913h-28.831v-82.517h-14.913v82.517zM1291.433 358.524v-12.924h-46.726v12.924h15.907v71.581h-14.913v12.924h44.738v-12.924h-13.918v-71.581zM1371.961 373.437l12.924 34.796 13.918 34.796h16.901v-2.983l-40.761-95.441h-6.959l-40.761 95.441v2.983h16.901l13.918-33.802 13.918-35.79zM1517.111 429.111h-42.75v-25.849h40.761v-14.913h-40.761v-27.837h43.744v-14.913h-59.65v97.429h58.656zM939.495 261.095c-4.971-14.913-11.93-29.825-18.889-43.744-11.93-21.872-25.849-41.755-40.761-60.645-2.983-2.983-4.971-5.965-7.953-8.948 0 0 0 0 0 0-70.586-85.499-170.998-143.161-282.346-162.050-124.272-20.878-248.544 7.953-350.944 80.528s-170.004 180.94-190.882 304.217c-20.878 124.272 7.953 248.544 80.528 350.944 73.569 102.4 181.934 170.004 305.212 190.882 164.039 26.843 332.054-34.796 438.431-162.050 3.977-4.971 13.918-23.86-13.918-48.715s-50.703-8.948-56.668-3.977c-88.482 105.383-227.666 156.085-362.874 134.214-102.4-16.901-191.876-73.569-252.52-158.074s-84.505-187.899-66.61-290.299c16.901-102.4 73.569-191.876 158.074-252.52s187.899-84.505 290.299-66.61c67.604 10.936 129.243 39.767 180.94 81.522 0 0 0 0 0 0 39.767 31.814 72.575 71.581 96.435 116.318h-48.715c-16.901-26.843-37.779-50.703-60.645-71.581-1.988-1.988-3.977-3.977-5.965-4.971-47.72-40.761-105.383-68.598-169.010-79.534-91.464-14.913-183.922 5.965-259.48 59.65s-126.26 134.214-141.173 225.678c-14.913 91.464 5.965 183.922 59.65 259.48s134.214 126.26 225.678 141.173c121.289 20.878 246.555-25.849 325.095-120.295l1.988-1.988c6.959-6.959 17.895-13.918 31.814-18.889 0 0 45.732-14.913 81.522 20.878 47.72 42.75 32.808 87.487 17.895 105.383-115.324 138.19-298.252 205.794-477.204 175.969-278.369-46.726-466.268-311.177-419.542-589.546 22.866-134.214 96.435-252.52 207.783-331.060 87.487-62.633 189.887-95.441 295.27-95.441 28.831 0 57.662 1.988 85.499 6.959 121.289 19.883 228.66 82.517 306.206 173.981 0 0 0 0 0 0 36.784 40.761 64.621 89.476 81.522 142.167h-43.744z" />
<glyph unicode="&#xe911;" glyph-name="roller" horiz-adv-x="1237" d="M253.141 792.235h882.389v82.688h-882.389v-82.688zM589.952-49.408v378.027h40.491v84.181h-16.683c-176.256 0-352.512-0.043-528.768 0-48.512 0.043-84.864 36.267-84.949 84.608-0.085 69.717-0.043 139.435 0.043 209.152 0.043 6.059 0.299 12.331 1.664 18.219 9.003 40.192 41.685 66.432 83.029 66.731 27.477 0.213 54.955 0.043 83.627 0.043v15.488c0 44.715-0.043 89.472 0.043 134.187 0 16.427 2.517 18.773 19.371 18.773 337.579-0.043 675.2-0.043 1012.821-0.085 17.579 0 20.053-2.347 20.096-19.413 0.043-112.213 0.043-224.469 0-336.768 0-22.229-0.725-22.656-23.040-22.656-137.259 0.043-274.517 0-411.691 0.043-199.936 0-399.872 0-599.808 0.085-15.573 0-17.664 2.091-17.707 17.28-0.085 32-0.043 64.043-0.043 96.043v12.203h-83.456v-209.835h16.469c174.507 0 349.013 0 523.52-0.043 55.040 0 90.539-35.285 90.624-90.027 0-25.728 0-51.413 0-78.677h41.771v-377.557h-167.424z" />
<glyph unicode="&#xe912;" glyph-name="sign" horiz-adv-x="1186" d="M0 960v-659.24h535.768v-379.365h126.491v379.365h535.714v659.24z" />
<glyph unicode="&#xe913;" glyph-name="sign-o" horiz-adv-x="1186" d="M1206.488 406.932h-1206.488v553.068h1206.488v-553.068zM53.895 460.827h1098.698v445.278h-1098.698v-445.278zM669.642-90.57h-132.851v451.207h132.851v-451.207zM590.686-36.675h25.061v343.417h-25.061v-343.417z" />
<glyph unicode="&#xe914;" glyph-name="sun-o" horiz-adv-x="979" d="M486.266 740.285c-8.993 0-22.261 2.938-34.727 17.007-9.75 10.952-14.514 25.199-14.603 43.542l-0.045 98.081c0 34.059 18.566 50.71 34.148 58.635l4.764 2.449h23.107l5.521-3.562c5.343-3.25 8.37-5.165 11.13-7.48 9.528-7.88 20.836-22.84 21.014-49.731 0.178-33.124 0.267-66.159-0.045-99.239-0.178-33.347-17.453-47.905-27.737-53.604-7.391-4.007-14.959-6.099-22.528-6.099zM486.756 914.944c-3.072-2.76-5.387-7.213-5.387-16.028l0.089-97.859c0-6.945 1.158-11.709 3.339-14.202l1.336-1.914c4.942 2.849 5.788 9.884 5.788 15.405 0.267 32.902 0.223 65.759 0.045 98.66-0.045 7.747-1.692 13-4.808 15.627-0.134 0.089-0.223 0.223-0.401 0.312zM118.205 393.995l-59.615 0.045c-26.045 0-46.125 13.357-56.676 37.532l-1.914 8.904v18.12l2.805 5.031c3.072 5.877 4.764 8.993 6.812 11.887 7.524 10.685 22.083 23.463 48.618 23.641l48.395 0.134 44.388-0.178c24.353-0.223 42.785-11.13 52.001-30.765 9.483-20.079 5.921-41.094-9.839-57.522-10.596-10.952-25.021-16.562-42.83-16.74l-32.145-0.089zM69.409 438.561l48.796-0.045 31.833 0.089c8.147 0.045 10.285 2.271 11.086 3.117 3.339 3.517 3.027 4.675 1.647 7.702-0.935 1.959-2.404 5.12-12.11 5.209l-43.987 0.178-48.128-0.134c-9.216-0.045-11.442-3.25-12.511-4.764-0.579-0.89-1.069-1.736-1.514-2.627v-1.603c3.161-5.343 6.945-7.123 13.891-7.123h10.997zM866.794 393.906l-44.388 0.223c-24.264 0.223-42.741 11.13-51.957 30.72-9.528 20.124-5.966 41.138 9.839 57.522 10.552 10.952 24.977 16.562 42.874 16.696l31.833 0.089 59.926-0.045c26.134 0 46.169-13.312 56.721-37.532l1.87-8.904v-18.031l-2.805-5.031c-3.027-5.877-4.675-8.949-6.678-11.798-7.702-10.819-22.216-23.552-48.751-23.73l-48.484-0.178zM854.951 454.678l-31.477-0.089c-8.281-0.045-10.329-2.226-11.175-3.072-3.339-3.517-2.983-4.675-1.603-7.702 0.935-1.914 2.404-5.12 12.11-5.209l43.943-0.178 48.128 0.134c9.216 0.045 11.487 3.25 12.555 4.764 0.534 0.757 0.979 1.647 1.469 2.582v1.558c-3.517 5.966-7.658 7.168-13.802 7.168l-60.149 0.045zM497.664-66.805h-23.151l-5.521 3.562c-5.254 3.25-8.192 5.12-10.952 7.346-9.661 7.969-21.014 22.973-21.192 49.864-0.178 33.080-0.223 66.115 0.045 99.194 0.178 33.302 17.453 47.905 27.737 53.604 7.391 4.096 14.915 6.144 22.483 6.144 8.993 0 22.305-2.938 34.771-17.052 9.706-10.908 14.47-25.155 14.559-43.498l0.089-98.037c0-34.059-18.566-50.71-34.148-58.68l-4.719-2.449zM488.626 106.34c-6.233-0.668-7.123-7.836-7.168-13.49-0.267-32.902-0.223-65.803-0.045-98.616 0.045-7.791 1.692-13.045 4.808-15.672 0.134-0.134 0.267-0.223 0.445-0.356 3.072 2.76 5.387 7.213 5.387 16.028l-0.089 97.859c0 6.99-1.113 11.754-3.339 14.247zM487.558 163.951l-9.216 0.178c-147.901 5.387-264.281 135.925-259.428 290.994 4.808 153.778 122.613 274.254 268.199 274.254l7.391-0.089c148.079-5.788 264.637-136.192 260.051-290.638-4.586-154.045-121.856-274.699-266.997-274.699zM487.112 684.811c-121.411 0-219.67-101.51-223.722-231.112-4.096-130.671 93.050-240.595 216.554-245.092l7.569-0.178c120.921 0 218.646 101.688 222.52 231.469 3.918 132.363-91.448 239.928-217.043 244.825l-5.877 0.089zM654.648 693.938c-5.254 0-10.507 0.846-15.672 2.493-21.86 6.99-37.131 28.138-38.778 53.827l-0.267 4.319 2.938 9.394c1.603 5.743 3.384 11.398 5.966 16.518 14.603 28.806 29.384 57.522 44.566 86.016 19.322 36.241 67.896 40.47 90.735 8.103 13.045-18.744 14.113-40.915 3.161-62.642-15.093-29.607-30.364-59.036-45.991-88.242-9.884-18.61-27.336-29.785-46.659-29.785zM645.075 749.813c1.113-5.476 4.051-9.884 7.524-10.952l2.048-0.356c3.695 0 6.456 4.363 7.435 6.278 15.538 28.984 30.631 58.145 45.546 87.441 4.408 8.682 2.493 13.401 0.045 16.918-1.558 2.137-8.058 9.528-14.959-3.473-15.004-28.227-29.696-56.676-44.121-85.259-1.336-2.671-2.048-5.61-2.894-8.593l-0.623-2.003zM856.465 162.705l-9.171 3.161c-4.719 1.469-10.641 3.295-16.518 6.678-27.47 16.117-54.895 32.278-81.875 49.152-16.607 10.285-26.713 26.891-27.737 45.501-1.024 18.254 6.856 35.439 21.638 47.149 17.809 14.069 40.47 15.494 60.683 3.695 28.405-16.562 56.676-33.347 84.68-50.755 21.415-13.312 31.343-39.535 24.042-63.8-6.812-22.706-26.847-38.6-51.022-40.426l-4.719-0.356zM775.302 281.578c-0.534 0-2.137 0-4.808-2.137-3.339-2.627-5.075-6.099-4.853-9.706 0.223-4.007 2.671-7.658 6.856-10.285 26.624-16.607 53.693-32.545 80.718-48.395 1.425-0.89 4.452-1.781 7.302-2.716l0.757-0.223c4.051 1.291 7.213 4.319 8.37 8.281 1.247 4.185-0.045 10.062-4.897 13.089-27.648 17.23-55.608 33.747-83.701 50.131-2.226 1.336-4.23 1.959-5.743 1.959zM271.894-4.697c-5.521 0-10.952 0.935-16.161 2.716-21.37 7.569-36.196 28.449-37.888 53.203l-0.267 4.23 2.805 9.35c1.38 5.075 2.938 10.863 5.877 16.74 14.959 29.473 29.919 58.813 45.59 87.708 19.189 35.528 67.896 38.957 90.29 6.278 12.422-18.165 13.624-40.292 3.295-60.772-15.405-30.408-30.987-60.728-47.149-90.691-9.528-17.809-27.336-28.761-46.392-28.761zM262.723 50.955c1.113-5.343 4.051-9.661 7.702-10.908l1.469-0.223c2.093 0 5.12 1.38 7.257 5.343 15.983 29.562 31.388 59.57 46.57 89.622 3.873 7.658 2.003 12.154-0.267 15.583-4.586 6.723-10.329 5.12-14.425-2.36-15.494-28.538-30.275-57.522-45.011-86.55-0.935-1.781-1.781-4.942-2.671-8.326l-0.623-2.182zM197.677 566.829l-13.713 2.938c-5.298 1.781-11.175 3.918-16.651 7.079-22.662 13.223-45.19 26.758-67.762 40.337l-10.952 6.589c-21.949 13.134-32.145 33.792-28.761 58.101 2.894 21.415 16.161 37.265 37.22 44.611 14.336 4.986 30.23 3.25 44.789-5.343 28.093-16.473 56.097-33.080 83.79-50.221 19.723-12.199 29.34-33.258 25.734-56.409-3.295-21.905-17.497-38.289-39.001-44.7-2.404-0.712-4.942-1.247-8.37-1.781l-6.322-1.202zM113.575 684.811c-7.702-2.404-9.082-4.942-9.661-8.993-0.801-5.565 0.178-9.439 7.569-13.891l10.997-6.589c22.35-13.446 44.7-26.891 67.228-39.981 2.538-1.469 5.343-2.315 7.88-3.161 7.257 2.003 9.038 4.141 9.75 9.082 0.89 5.743-0.534 9.038-5.12 11.887-27.381 16.918-55.118 33.391-82.899 49.686-2.271 1.247-4.274 1.959-5.743 1.959zM319.533 694.027c-15.761 0-30.943 7.435-40.648 19.857-2.805 3.517-5.699 7.48-7.969 11.798l-9.528 18.298c-11.798 22.483-23.507 44.878-34.905 67.539-9.483 18.788-9.75 40.381-0.623 57.745 8.103 15.405 22.528 25.6 39.58 27.915l7.435 0.49c19.768 0 36.419-10.908 46.926-30.631 15.315-29.028 30.408-58.19 45.279-87.485 2.938-5.921 4.452-11.576 5.832-16.651l2.538-8.637-0.223-3.962c-1.247-22.973-14.826-43.943-33.792-52.179-6.322-2.716-13-4.096-19.901-4.096zM272.829 853.192c-2.404-0.223-5.521-0.668-7.569-4.586-1.825-3.606-2.627-9.973 0.979-17.052 11.309-22.439 22.929-44.655 34.549-66.916l9.617-18.432c0.935-1.781 2.182-3.25 3.384-4.764 2.003-2.582 5.387-3.562 7.88-2.493 2.226 0.935 5.521 5.387 6.634 10.73l-0.445 1.736c-0.846 3.072-1.692 6.322-2.538 8.014-14.692 29.073-29.696 58.012-44.878 86.773-3.74 6.99-6.411 6.99-7.613 6.99zM775.48 566.517c-22.35 1.024-42.652 15.449-50.577 35.885-8.192 21.148-2.404 46.347 14.069 61.262 4.541 4.096 8.593 7.257 12.822 9.75 25.778 15.583 51.734 31.165 77.779 46.57 27.025 15.894 59.793 9.127 75.375-15.36 8.637-13.49 11.62-28.939 8.37-43.587-3.295-14.603-12.555-27.292-26.179-35.84-25.912-16.25-52.269-31.699-78.67-47.149l-5.343-3.161c-5.654-3.295-11.219-4.853-15.716-6.099l-11.932-2.271zM860.917 684.41c-2.627 0-5.565-0.935-8.637-2.76-25.912-15.315-51.779-30.854-77.557-46.436-1.647-0.979-3.473-2.404-5.699-4.452-2.894-2.671-4.096-8.37-2.538-12.288 1.158-3.072 4.63-5.832 8.37-6.945l0.668 0.178c1.825 0.534 4.408 1.202 5.165 1.647l5.387 3.161c26.001 15.226 51.957 30.408 77.468 46.436 2.449 1.558 5.521 4.141 6.367 7.836 0.89 3.74-0.846 7.435-2.36 9.839-1.736 2.627-3.784 3.784-6.634 3.784zM112.595 164.307c-17.853 0-33.747 8.593-43.631 23.552-8.949 13.668-12.065 29.251-8.904 43.987 3.117 14.514 12.243 27.203 25.734 35.795 25.511 16.161 51.601 31.388 77.69 46.614l7.168 4.185c5.743 3.339 11.353 4.853 15.85 6.099l12.021 2.182c21.994-1.202 42.652-16.161 50.221-36.33 7.88-21.459 2.093-45.902-14.381-60.95-3.784-3.473-7.836-6.723-12.154-9.35l-13.134-7.88c-21.816-13.089-43.587-26.179-65.491-39.046-9.839-5.788-20.525-8.86-30.987-8.86zM198.745 281.756l-0.579-0.178c-1.736-0.49-4.363-1.158-5.12-1.603l-7.123-4.141c-25.6-14.959-51.245-29.919-76.266-45.768-3.384-2.137-5.432-4.675-6.055-7.569-0.668-2.983 0.267-6.589 2.627-10.195 2.983-4.541 8.637-4.586 14.826-0.801 21.771 12.778 43.409 25.778 65.091 38.823l13.223 7.925c1.87 1.069 3.428 2.627 5.031 4.051 3.027 2.76 4.185 8.326 2.627 12.555-1.113 2.894-4.63 5.743-8.281 6.901zM702.063-4.563c-15.36 0-30.141 6.723-39.491 18.031-2.003 2.404-4.319 5.165-6.144 9.082l-12.555 23.819c-13 24.621-26.001 49.241-38.111 74.396-11.576 24.042-2.627 54.049 20.836 69.81 21.638 14.603 52.224 9.216 68.786-12.199 2.938-3.829 5.699-8.058 8.058-12.377l8.904-17.096c11.487-21.905 22.973-43.809 34.104-65.937 2.76-5.387 4.675-11.353 6.5-17.408l3.161-9.706-0.223-4.274c-1.024-21.771-14.603-43.008-32.902-51.601-6.367-2.894-13.624-4.541-20.925-4.541zM654.381 154.691c-7.836-4.274-10.418-10.552-8.548-14.514 11.932-24.665 24.71-48.84 37.443-72.971l13.178-25.066c1.736-1.736 6.945-2.093 7.524-1.825 2.36 1.069 5.699 5.521 6.945 10.418l-0.668 1.959c-1.024 3.473-2.003 7.034-3.606 10.195-11.041 21.949-22.394 43.676-33.792 65.402l-8.86 16.963c-1.024 2.003-2.404 4.051-3.873 5.966-1.736 2.182-3.829 3.473-5.743 3.473z" />
<glyph unicode="&#xe915;" horiz-adv-x="1178" d="M1147.443 658.227c-15.821 148.275-78.234 247.45-78.234 247.45-245.146-90.214-444.928-9.626-470.067 1.28 0 0-0.461 0.973-1.331 0.563-0.87 0.41-1.331-0.563-1.331-0.563-25.088-10.906-224.87-91.494-470.016-1.28 0 0-62.464-99.226-78.285-247.45-11.315-106.342 1.331-237.978 78.285-376.218 150.221-269.978 405.811-302.49 465.050-306.33v-0.563c0 0 2.253 0 6.298 0.154 4.096-0.154 6.298-0.154 6.298-0.154v0.563c59.29 3.84 314.829 36.352 465.050 306.33 77.056 138.24 89.651 269.875 78.285 376.218z" />
<glyph unicode="&#xe916;" horiz-adv-x="1178" d="M597.811 19.917h0.102l3.277 0.205c27.085 1.792 99.226 10.138 182.426 49.254 104.499 49.101 187.494 127.949 246.682 234.291 61.338 110.285 85.862 227.942 72.858 349.798-9.574 89.958-37.376 160.205-55.45 197.939-69.683-21.606-141.619-32.512-214.118-32.512-112.077 0-197.683 26.419-234.906 40.294l-0.87-0.358-0.87 0.358c-37.171-13.875-122.778-40.294-234.854-40.294-72.499 0-144.333 10.906-214.016 32.461-18.074-37.888-46.029-108.595-55.552-197.888-13.005-121.856 11.52-239.514 72.858-349.798 59.187-106.342 142.182-185.19 246.682-234.291 83.149-39.117 155.29-47.462 182.426-49.254l3.226-0.205h0.102zM604.006-69.427c-0.307 0-2.458 0-6.195 0.154-4.045-0.154-6.195-0.154-6.195-0.154l-44.698 0.102v5.274c-42.24 6.451-104.653 20.787-172.749 52.787-121.754 57.242-218.214 148.634-286.669 271.667-70.451 126.618-98.56 262.093-83.61 402.534 16.742 156.774 82.074 262.144 84.838 266.547l19.251 30.515 33.843-12.493c71.322-26.214 145.408-39.526 220.262-39.526 111.667 0 190.874 29.133 212.941 38.298 6.861 3.84 14.592 5.888 22.784 5.939 8.141-0.051 15.974-2.099 22.784-5.939 22.118-9.165 101.325-38.298 212.992-38.298 74.854 0 148.941 13.312 220.211 39.526l33.894 12.442 19.2-30.515c2.765-4.403 68.147-109.773 84.838-266.547 15.002-140.442-13.158-275.968-83.61-402.534-68.506-122.982-164.915-214.426-286.669-271.667-67.994-32-130.355-46.336-172.595-52.787l0.102-5.274-44.954-0.102z" />
<glyph unicode="&#xe917;" horiz-adv-x="1178" d="M126.464 281.754c150.221-269.978 405.811-302.438 465.101-306.33v-0.563c0 0 2.202 0 6.298 0.205 4.045-0.205 6.246-0.205 6.246-0.205v0.563c59.29 3.891 314.88 36.352 465.101 306.33 76.954 138.291 89.6 269.824 78.234 376.166h-1099.213c-11.366-106.342 1.28-237.824 78.234-376.166z" />
<glyph unicode="&#xe918;" horiz-adv-x="1178" d="M599.194 906.701v1.178c0 0-0.461-0.205-1.331-0.563-0.87 0.41-1.382 0.563-1.382 0.563v-1.178c-25.088-10.906-224.87-91.494-470.067-1.28 0 0-62.413-99.226-78.234-247.501h1099.264c-15.821 148.275-78.234 247.501-78.234 247.501-245.146-90.214-444.979-9.574-470.016 1.28z" />
<glyph unicode="&#xe919;" horiz-adv-x="1178" d="M722.79 484.147h-175.155l-4.25-92.723c6.861 1.997 15.053 3.379 24.576 4.25 9.472 0.819 18.074 1.126 25.754 1.126 20.992 0 40.499-3.021 58.47-9.062s33.638-14.848 46.95-26.368c13.363-11.571 23.757-25.651 31.232-42.445 7.475-16.742 11.213-36.045 11.213-57.856 0-23.91-4.147-45.21-12.442-63.949-8.243-18.79-19.507-34.714-33.638-47.616-14.080-12.954-30.72-22.784-49.664-29.696-18.995-6.861-39.219-10.24-60.621-10.24-35.994 0-66.253 8.346-90.931 25.088-24.627 16.742-42.598 39.68-53.914 68.813l66.048 24.269c6.042-16.998 16.179-30.618 30.31-40.909 14.131-10.342 30.925-15.462 50.278-15.462 10.906 0 21.248 1.741 30.925 5.376 9.728 3.635 18.125 8.909 25.446 15.821 7.322 6.861 13.056 15.462 17.306 25.754s6.349 21.914 6.349 34.867c0 16.538-2.816 30.31-8.499 41.216-5.632 10.906-13.005 19.763-22.17 26.419-9.011 6.656-19.302 11.315-30.566 13.875-11.315 2.611-22.835 3.942-34.509 3.942-8.090 0-16.691-0.614-25.754-1.792-9.114-1.178-18.022-2.97-26.675-5.171-8.704-2.253-17.203-4.762-25.446-7.578-8.294-2.816-15.667-5.888-22.17-9.114l7.322 234.547h244.224v-65.382z" />
<glyph unicode="&#xe91a;" glyph-name="train" d="M161.307-24.926l70.279 48.829 556.894-2.048 78.74-46.781h-705.913zM708.716 249.829c-30.774 0.054-57.021 27.325-56.212 58.637 0.755 30.397 26.624 55.997 56.536 55.889 31.151-0.108 56.32-26.57 55.781-58.584-0.485-30.774-25.708-55.943-56.104-55.943zM247.431 305.664c-0.647 32.067 24.414 58.53 55.619 58.691 29.965 0.108 55.889-25.331 56.751-55.727 0.862-31.205-25.169-58.53-56.051-58.799-30.181-0.216-55.619 25.007-56.32 55.835zM352.040 104.044l328.435 0.108 55.512-44.086h-450.291l66.344 43.978zM186.745 471.929v291.032h118.676c66.937 0.647 133.875 0.054 200.758 0.054v0.323c66.722 0 133.389 0.323 200.111-0.216 1.994 0 3.988-0.108 5.982-0.162h117.814v-291.032h-643.341zM402.648 896.835c68.931 0.323 137.917 0.323 206.848 0 22.636-0.054 38.211-14.659 37.403-33.307-0.916-18.378-15.576-31.313-37.187-31.528-35.247-0.323-70.494-0.054-105.634-0.054-33.738 0-67.422-0.269-101.16 0.054-22.528 0.216-38.104 14.605-37.511 33.576 0.593 17.893 15.629 31.205 37.241 31.259zM778.132 124.147c21.181 14.12 41.822 25.923 60.308 40.637 42.685 34.061 64.512 79.764 64.728 134.791 0.593 153.546 0.539 306.931 0.054 460.423-0.216 59.769-25.923 107.089-72.812 142.552-39.882 30.181-85.477 46.080-134.306 53.086-5.659 0.755-11.156 2.856-16.761 4.365h-346.381c-25.223-6.090-51.038-10.186-75.453-18.594-66.56-23.013-121.048-60.793-141.312-134.252-4.958-18.055-6.899-37.511-6.952-56.32-0.539-145.031 0.755-290.169-0.701-435.2-0.862-84.237 36.81-141.959 108.221-179.793 5.228-2.749 10.509-5.336 19.725-10.024-80.519-56.104-158.504-110.43-236.49-164.81v-32.067c337.435 0 674.816 0 1012.305 0v32.067c-77.716 54.164-155.486 108.275-234.173 163.139z" />
<glyph unicode="&#xe91b;" glyph-name="umbrella" horiz-adv-x="1293" d="M659.564 960l-659.564-225.442h4.527v-43.978h608.849v-769.186h61.224v769.186h640.269v43.978h4.581l-659.618 225.442z" />
<glyph unicode="&#xe91c;" glyph-name="umbrella-o" horiz-adv-x="1587" d="M820.582-79.411h-109.414v730.829h-578.355v41.728h-128.512l141.466 49.818 635.034 217.037 780.851-266.803h-132.813v-41.728h-608.256v-730.88zM762.368-28.211h7.014v730.829h606.259l-594.842 203.264-594.842-203.264h576.41v-730.829z" />
<glyph unicode="&#xe91d;" glyph-name="units-o" horiz-adv-x="860" d="M247.316 121.18h-247.316v838.82h247.316v-838.82zM40.96 162.14h165.396v756.9h-165.396v-756.9zM554.066-75.592h-247.276v838.82h247.276v-838.82zM347.75-34.632h165.356v756.9h-165.356v-756.9zM852.419 121.18h-247.276v838.82h247.276v-838.82zM646.062 162.14h165.356v756.9h-165.356v-756.9z" />
<glyph unicode="&#xe91e;" glyph-name="water-o" horiz-adv-x="647" d="M333.016-73.863v0c-177.421 0-323.476 141.797-332.584 322.668-0.916 17.731-0.431 35.732 1.455 53.464 4.204 44.194 17.3 88.495 38.966 131.288 39.72 78.74 85.208 131.395 125.305 177.907 36.972 42.739 68.877 79.71 84.992 125.79 32.714 93.561 23.929 153.6 23.821 154.193l-10.509 67.692 53.787-42.253c13.42-10.563 328.92-263.276 348.106-645.551 9.755-192.674-120.131-334.417-315.931-344.711-5.821-0.323-11.587-0.485-17.408-0.485zM328.327 835.557c-2.856-30.073-10.024-69.578-26.301-116.089-19.456-55.781-56.158-98.25-95.070-143.252-38.104-44.086-81.273-94.1-118.029-166.966-18.863-37.295-29.804-74.051-33.469-112.317-1.563-15.144-1.94-30.397-1.186-45.325 7.653-152.307 130.048-271.576 278.69-271.576v0c4.851 0 9.701 0.108 14.552 0.377 138.779 7.33 274.54 99.274 265 288.229-13.851 275.348-198.225 484.083-284.187 566.919z" />
<glyph unicode="&#xe91f;" glyph-name="waves" horiz-adv-x="1955" d="M1656.273 675.793c-140.66-44.125-325.167-12.847-454.004 12.94-192.605 38.447-379.252 111.895-572.881 137.681-160.396 21.411-332.614 22.156-477.929-80.896-47.756-33.885-98.304-101.935-132.561-90.577-34.164 11.45-15.732 58.089 6.144 89.833 93.929 135.447 239.244 195.863 407.087 211.037 196.701 17.594 402.804-21.69 590.196-80.244 130.048-40.588 263.168-73.076 396.474-101.562 282.252-60.416 426.077 184.972 493.196 172.497 67.119-12.847-87.133-217.926-255.721-270.708zM1656.273 306.223c-140.66-44.032-325.167-12.753-454.004 13.033-192.605 38.447-379.252 111.895-572.881 137.681-160.396 21.411-332.614 22.156-477.929-80.896-47.756-34.071-98.304-102.028-132.561-90.671-34.164 11.45-15.732 58.089 6.144 89.74 93.929 135.54 239.244 195.863 407.087 211.13 196.701 17.594 402.804-21.69 590.196-80.244 130.048-40.681 263.168-73.076 396.474-101.562 282.252-60.416 426.077 184.879 493.196 172.311 67.119-12.66-87.133-217.74-255.721-270.522zM1656.273-63.348c-140.66-44.032-325.167-12.753-454.004 12.94-192.605 38.447-379.252 111.895-572.881 137.681-160.396 21.411-332.614 22.156-477.929-80.896-47.756-33.885-98.304-101.935-132.561-90.577-34.164 11.45-15.732 58.089 6.144 89.74 93.929 135.54 239.244 195.863 407.087 211.037 196.701 17.687 402.804-21.597 590.196-80.244 130.048-40.588 263.168-72.983 396.474-101.562 282.252-60.323 426.077 184.972 493.196 172.497 67.119-12.847-87.133-217.833-255.721-270.615z" />
<glyph unicode="&#xe920;" glyph-name="window" horiz-adv-x="1707" d="M114.483 383.42h665.941v-347.614h-665.941v347.614zM894.908 383.42h665.941v-347.614h-665.941v347.614zM114.483 845.449h665.941v-347.614h-665.941v347.614zM894.908 845.449h665.941v-347.614h-665.941v347.614zM0 960v-1038.814h1675.332v1038.814h-1675.332z" />
<glyph unicode="&#xe921;" glyph-name="phone" d="M282 478.667c62-120 162-220 282-282l94 94c12 12 30 16 44 10 48-16 100-24 152-24 24 0 42-18 42-42v-150c0-24-18-42-42-42-400 0-726 326-726 726 0 24 18 42 42 42h150c24 0 42-18 42-42 0-54 8-104 24-152 4-14 2-32-10-44z" />
<glyph unicode="&#xe922;" glyph-name="mail_outline" d="M512 468.667l342 214h-684zM854 170.667v426l-342-212-342 212v-426h684zM854 768.667c46 0 84-40 84-86v-512c0-46-38-86-84-86h-684c-46 0-84 40-84 86v512c0 46 38 86 84 86h684z" />
</font>
</defs>
</svg>
